<svg xmlns="http://www.w3.org/2000/svg" xml:space="preserve" viewBox="0 0 308 114">
  <switch>
    <g>
      <path fill="#be1549" d="M307.9 25.9h-8.3l-6.4-14-6.4 14h-8.3l10.6-23.1h8.3l10.5 23.1z"/>
      <path d="M234.2 73.6v-6.1c1.3.2 2.3.2 3.4.2 6.2 0 9.9-2.7 12-7.8l.9-2.1-19.3-38.9h8l13.5 28.7c.6 1.5 1 2.7 1.3 3.7h.1c.3-.9.7-2.2 1.3-3.7l12.7-28.7h7.7l-19.1 41.6c-4.5 9.9-10.1 13.4-18.1 13.4-1.6 0-3-.1-4.4-.3zM222 40.9v-2l-15.9 1.5c-8.1.9-10.8 2.9-10.8 7 0 4 3.8 6.3 10.4 6.3 9.7 0 16.3-5 16.3-12.8zm-34 6.7c0-3.8 1.7-7 4.8-8.9 2.9-1.7 6.7-2.9 14.6-3.6L222 34v-.7c0-6.8-4.1-10-12.1-10-7.6 0-12.3 2.9-13 8.2h-7.5c.9-8.2 8.7-13.8 20.5-13.8 12.8 0 19.1 5.2 19.1 16.3v10.3c0 6.7.3 10.1 1.2 13.6H223c-.4-2.2-.5-4.9-.6-7.6-3 5.6-9.2 8.8-18.4 8.8-9.7.1-16-4.4-16-11.5zm-11.3-9.1c0-9.2-5.5-14.8-14.5-14.8s-15.3 5.5-15.3 13.8v1.8c0 8.4 5.9 13.8 14.8 13.8 9.3 0 15-5.4 15-14.6zm-36.4-19.6h6.6v7.7c3.2-5.6 9.5-8.8 17.1-8.8 12 0 19.9 8.2 19.9 20.8 0 12.4-8.4 20.7-20.3 20.7-7.5 0-13.9-3.4-16.5-7.8v21.9h-6.9V18.9h.1zm-7.8-1.1c1.1 0 2 .1 3 .2v6.7c-.8-.1-1.5-.2-2.4-.2-4.9 0-8 1.4-10.2 3.8-3.5 3.6-4.1 8.7-4.1 13.8V58h-6.9V18.9h6.4v9.9c2-6.3 7.2-11 14.2-11zM98.7 38.4c0-9.5-5.8-14.8-15-14.8s-15 5.3-15 14.8 5.8 14.8 15 14.8 15-5.3 15-14.8zm-37.4 0c0-12.7 9-20.7 22.4-20.7S106 25.8 106 38.4s-8.9 20.7-22.3 20.7c-13.4.1-22.4-8-22.4-20.7zM.2 30.1C.2 12.7 11.4.8 30.1.8c15.3 0 24.3 7.7 26.6 20.1l-8 .8c-1.8-8.9-8.4-14.4-19-14.4C16.2 7.3 8.3 16.2 8.3 30c-.1 13.4 8 23 21.6 23 10 0 16.7-5 19.2-13.7l7.6 1.3c-3.3 11.4-11.9 19-27 19C10.5 59.6.2 47 .2 30.1z"/>
      <path fill="#4ebded" d="M173.4 96.6c0-10.5 5.6-22.5 19.8-22.5 9 0 16.7 4.8 16.7 16.8 0 10.5-5.6 22.5-19.8 22.5-9 .1-16.7-4.8-16.7-16.8zm29.4-5.3c0-9.1-4.9-11.6-9.7-11.6-9.6 0-12.6 9.4-12.6 16.7 0 9.1 4.9 11.6 9.7 11.6 9.6 0 12.6-9.4 12.6-16.7zM217.4 86.1h6.1l-.9 5c1.5-3.1 4.1-5.7 8.8-5.7 3.8 0 7.9 1.7 7.9 8.2 0 1.1-.1 2.2-.3 3.5l-2.6 15.3H230l2.6-15c.2-.9.3-1.6.3-2.3 0-3.8-2.3-4.7-4.4-4.7-5 0-6.3 4.5-6.9 8.2l-2.4 13.7h-6.3l4.5-26.2zM248.2 101c-.1 5.3 2.8 7.2 6.4 7.2 3.2 0 5.1-1.4 6.4-4.4l4.7 2.3c-2 4.5-5.8 7.1-11.5 7.1-5.5 0-12.2-2.5-12.2-11.9 0-7.3 4.1-15.8 14.3-15.8 6.1 0 11.3 3 11.3 10.4 0 1.6-.2 3.4-.8 5l-18.6.1zm.3-4.2h12.9c.1-.4.2-1.1.2-1.9 0-3.8-2.5-5.2-5.5-5.2-4.1 0-6.7 2.9-7.6 7.1z"/>
    </g>
  </switch>
</svg>
